<?xml version="1.0" encoding="utf-8"?>
<!-- Generator: Adobe Illustrator 19.2.1, SVG Export Plug-In . SVG Version: 6.00 Build 0)  -->
<svg version="1.1" id="layer" xmlns="http://www.w3.org/2000/svg" xmlns:xlink="http://www.w3.org/1999/xlink" x="0px" y="0px"
	 viewBox="0 0 652 652" style="enable-background:new 0 0 652 652;" xml:space="preserve">
<style type="text/css">
	.st0{fill:#E3000B;}
	.st1{fill:#FFFFFF;}
</style>
<g>
	<path d="M262,318.3c-0.5-4.5-3.2-6.5-8.5-6.5c-4.6,0-7.4,2-7.4,5.2c0,2.6,1.8,4.2,5.4,4.9l7.9,1.4c8.5,1.4,13,5.9,13,12.8
		c0,8.6-7,14.2-18.1,14.2c-11.8,0-18.5-5.7-18.7-15.7h9.4c0.6,5.7,3.4,8.2,9.7,8.2c4.8,0,8.3-2.5,8.3-6c0-2.8-1.8-4.5-5.4-5.2
		l-7.2-1.3c-9.2-1.7-13.4-5.7-13.4-12.8c0-8.1,6.5-13.2,17-13.2c10.4,0,16.8,5.2,17,14H262z M298.9,305.2c9.6,0,15.1,4.1,15.1,11.2
		c0,3.9-1.8,6.8-6.1,9.1c5.5,2,7.8,5.5,7.8,11.2c0,7.7-6.1,12.6-15.7,12.6h-20.7v-44.1H298.9z M297.6,322.8c4.7,0,7.4-1.9,7.4-5
		c0-3.6-2.4-5.2-7.5-5.2h-9v10.2H297.6z M298,341.8c5.5,0,8.2-1.9,8.2-5.9c0-4.2-2.6-6-8.7-6h-9.1v11.9H298z M342.4,305.2
		c9.6,0,15.1,4.1,15.1,11.2c0,3.9-1.8,6.8-6.1,9.1c5.5,2,7.8,5.5,7.8,11.2c0,7.7-6.1,12.6-15.7,12.6h-20.9v-44.1H342.4z
		 M341.1,322.8c4.7,0,7.4-1.9,7.4-5c0-3.6-2.4-5.2-7.5-5.2h-9.2v10.2H341.1z M341.5,341.8c5.5,0,8.2-1.9,8.2-5.9c0-4.2-2.6-6-8.7-6
		h-9.2v11.9H341.5z"/>
	<path d="M417.1,333.7c-0.7,10.1-8.1,16.4-19.2,16.4c-12.4,0-20.6-9-20.6-22.9c0-13.7,8.4-23.1,20.8-23.1c10.6,0,17.8,5.9,18.6,15.2
		h-9.2c-1.1-5-4.2-7.5-9.3-7.5c-7,0-11.6,5.9-11.6,15.3c0,9.2,4.5,15.3,11.4,15.3c5.7,0,8.8-2.8,9.8-8.8H417.1z M432.8,313.1v10.4
		h19.6v7.7h-19.6v18.1h-9.2v-44.1h30.7v7.9H432.8z M471.6,313.1v10.4h19.8v7.7h-19.8v18.1h-9.3v-44.1h31v7.9H471.6z"/>
	<path d="M523.6,313.1v10.4h19.8v7.7h-19.8v18.1h-9.2v-44.1h31v7.9H523.6z M562.7,313.1v10.4h19.7v7.7h-19.7v18.1h-9.3v-44.1h30.9
		v7.9H562.7z M616.1,318.3c-0.5-4.5-3.2-6.5-8.5-6.5c-4.6,0-7.4,2-7.4,5.2c0,2.6,1.8,4.2,5.4,4.9l7.9,1.4c8.5,1.4,13,5.9,13,12.8
		c0,8.6-7,14.2-18.1,14.2c-11.8,0-18.5-5.7-18.7-15.7h9.4c0.6,5.7,3.4,8.2,9.7,8.2c4.8,0,8.3-2.5,8.3-6c0-2.8-1.9-4.5-5.4-5.2
		l-7.2-1.3c-9.2-1.7-13.4-5.7-13.4-12.8c0-8.1,6.5-13.2,17-13.2c10.4,0,16.8,5.2,17.1,14H616.1z"/>
	<rect x="26.5" y="294.7" class="st0" width="188.8" height="63"/>
	<polygon class="st1" points="141.9,347.1 154.1,347.1 137.6,331 158,331 158,347.1 167.7,347.1 167.7,331 188.1,331 171.7,347.1 
		183.9,347.1 204.8,326.2 183.9,305.2 171.7,305.2 188.1,321.4 167.7,321.4 167.7,305.2 158,305.2 158,321.4 137.6,321.4 
		154.1,305.2 141.9,305.2 120.9,326.2 	"/>
</g>
</svg>
